<svg width="256" height="256" viewBox="0 0 256 256" fill="none" xmlns="http://www.w3.org/2000/svg">
<path d="M256 128C256 57.3075 198.692 0 128 0C57.3075 0 0 57.3075 0 128C0 198.692 57.3075 256 128 256C198.692 256 256 198.692 256 128Z" fill="url(#paint0_linear_1619_56)"/>
<path fill-rule="evenodd" clip-rule="evenodd" d="M191.153 54.7372C188.175 42.3064 174.585 34.5799 161.106 37.6544L148.268 40.5826C148.51 39.1052 148.762 37.5783 149.023 36C148.762 37.5788 148.51 39.1062 148.264 40.5835L51.709 62.6067C38.7525 65.562 30.7159 77.428 33.5781 89.377L60.613 202.242C63.591 214.673 77.181 222.399 90.661 219.325L200.057 194.373C213.014 191.417 221.05 179.551 218.188 167.603L209.317 130.568C212.672 130.975 216.396 131.493 220.542 132.07H220.545C221.348 132.182 222.166 132.296 223 132.412C217.818 131.693 213.26 131.044 209.268 130.361L191.153 54.7372ZM186.254 90.714C181.648 120.787 185.024 126.212 209.268 130.361L209.317 130.568C195.751 128.926 188.229 129.118 183.317 134.683C180.53 129.994 177.393 125.571 173.946 121.436C174.597 121.165 175.204 120.847 175.772 120.48C181.462 116.804 183.312 108.137 186.224 90.71L186.254 90.714ZM186.257 90.695L186.254 90.714C189.092 91.098 192.106 91.516 195.309 91.96C192.106 91.516 189.091 91.098 186.257 90.695ZM186.228 90.69L186.224 90.71C164.82 87.82 153.446 86.902 146.604 91.565C144.963 92.684 143.582 94.124 142.387 95.934C139.99 94.666 137.539 93.485 135.04 92.395C134.587 91.432 134.039 90.548 133.389 89.733C127.691 82.585 114.121 80.703 86.738 76.906C114.121 80.703 127.691 82.585 135.443 77.301C142.558 72.451 144.771 61.5651 148.264 40.5835L148.268 40.5826C144.828 61.5725 143.427 72.571 148.657 79.133C153.687 85.443 164.849 87.649 186.228 90.69ZM135.28 118.779C115.272 106.448 89.817 102.163 64.029 108.905L61.875 98.673C60.498 92.13 65.394 85.486 72.308 84.442C94.545 81.095 116.17 84.162 135.04 92.395C137.644 97.917 137.169 106.042 135.28 118.779ZM135.28 118.779C135.322 118.805 135.364 118.831 135.407 118.858C134.653 123 133.885 127.652 133.023 132.866C133.889 127.628 134.66 122.956 135.28 118.779ZM135.407 118.858C154.175 130.469 168.13 149.171 173.04 172.493L183.662 169.714C190.455 167.937 194.533 160.815 192.409 154.499C190.041 147.469 186.981 140.846 183.317 134.683C178.893 139.696 176.588 149.07 173.892 165.392C177.316 144.663 178.956 134.733 174.328 129.226C170.072 124.163 160.518 122.838 142.179 120.295C158.688 122.584 168.078 123.886 173.946 121.436C165.207 110.955 154.475 102.33 142.387 95.934C139.24 100.701 137.374 108.039 135.407 118.858ZM186.228 90.69L186.257 90.695C186.496 89.135 186.756 87.51 187.036 85.815C186.756 87.512 186.487 89.136 186.228 90.69ZM80.11 185.292L77.813 174.382C90.326 171.109 102.524 178.224 105.061 190.276L93.734 193.24C87.479 194.884 81.38 191.326 80.11 185.292ZM73.22 152.561L68.626 130.74C106.171 120.911 142.774 142.262 150.38 178.429L127.725 184.355C122.657 160.282 98.203 146.017 73.22 152.561Z" fill="white"/>
<defs>
<linearGradient id="paint0_linear_1619_56" x1="128" y1="0" x2="128" y2="256" gradientUnits="userSpaceOnUse">
<stop stop-color="#D0BCFF"/>
<stop offset="1" stop-color="#3F1168"/>
</linearGradient>
</defs>
</svg>
