<svg width="52" height="58" viewBox="0 0 52 58" fill="none" xmlns="http://www.w3.org/2000/svg">
<path d="M22.2273 31.9073L45.409 23.5772V37.4268C44.0315 36.6345 42.3935 36.175 40.6363 36.175C35.741 36.175 31.7727 39.74 31.7727 44.1375C31.7727 48.535 35.741 52.1 40.6363 52.1C45.5315 52.1 49.5 48.535 49.5 44.1375V20.7309C49.5 17.931 49.5 15.5828 49.2808 13.7118C49.2498 13.4474 49.213 13.1845 49.1725 12.9392C48.9612 11.661 48.588 10.4686 47.8675 9.47293C47.507 8.97505 47.06 8.52637 46.503 8.1407C46.3985 8.0684 46.29 7.9983 46.1778 7.9305L46.1552 7.91697C44.2265 6.76383 42.0583 6.8463 39.8245 7.35762C37.6643 7.85215 34.986 8.8592 31.702 10.0941L25.9908 12.2414C24.4515 12.8202 23.1473 13.3105 22.1235 13.8184C21.0344 14.3587 20.0962 14.996 19.3927 15.9457C18.6891 16.8954 18.3969 17.9189 18.2625 19.0301C18.1362 20.0744 18.1363 21.3445 18.1364 22.8436V42.3267C16.7587 41.5345 15.1209 41.075 13.3636 41.075C8.46838 41.075 4.5 44.64 4.5 49.0375C4.5 53.435 8.46838 57 13.3636 57C18.2589 57 22.2273 53.435 22.2273 49.0375V31.9073Z" fill="white"/>
</svg>
