<svg width="52" height="58" viewBox="0 0 52 58" fill="none" xmlns="http://www.w3.org/2000/svg">
<g clip-path="url(#clip0_2670_236)">
<path d="M22.2273 31.9073L45.409 23.5772V37.4268C44.0315 36.6345 42.3935 36.175 40.6363 36.175C35.741 36.175 31.7727 39.74 31.7727 44.1375C31.7727 48.535 35.741 52.1 40.6363 52.1C45.5315 52.1 49.5 48.535 49.5 44.1375V20.7309C49.5 17.931 49.5 15.5828 49.2808 13.7118C49.2498 13.4474 49.213 13.1845 49.1725 12.9392C48.9612 11.661 48.588 10.4686 47.8675 9.47293C47.507 8.97505 47.06 8.52637 46.503 8.1407C46.3985 8.0684 46.29 7.9983 46.1778 7.9305L46.1552 7.91697C44.2265 6.76383 42.0583 6.8463 39.8245 7.35762C37.6643 7.85215 34.986 8.8592 31.702 10.0941L25.9908 12.2414C24.4515 12.8202 23.1473 13.3105 22.1235 13.8184C21.0344 14.3587 20.0962 14.996 19.3927 15.9457C18.6891 16.8954 18.3969 17.9189 18.2625 19.0301C18.1362 20.0744 18.1363 21.3445 18.1364 22.8436V42.3267C16.7587 41.5345 15.1209 41.075 13.3636 41.075C8.46838 41.075 4.5 44.64 4.5 49.0375C4.5 53.435 8.46838 57 13.3636 57C18.2589 57 22.2273 53.435 22.2273 49.0375V31.9073Z" fill="white"/>
<path d="M9.44691 1.11553C7.85894 1.34467 6.64554 2.65699 6.51628 4.28505C6.48718 4.65196 6.54247 5.02539 6.62466 5.41033C6.68672 5.70073 6.77457 6.04316 6.8816 6.4455L7.03233 7.0095C7.03393 7.01546 7.03552 7.02141 7.03711 7.02733L9.7159 17.0247C8.41927 16.3128 6.86902 16.0794 5.34239 16.4884C2.15686 17.342 0.280687 20.6696 1.15188 23.9209C2.02308 27.1723 5.31168 29.116 8.49722 28.2624C11.6828 27.4088 13.5589 24.0813 12.6877 20.8299L9.76888 9.93664C9.91469 9.97178 10.0713 10.0051 10.243 10.0416L13.9803 10.8384C14.5577 10.9615 15.0275 11.0617 15.4066 11.1216C15.7888 11.1821 16.1581 11.216 16.516 11.1643C18.1038 10.9352 19.3172 9.62283 19.4465 7.99482C19.4757 7.62789 19.4203 7.25447 19.3382 6.8695C19.2566 6.48777 19.1302 6.01614 18.9749 5.43656L18.9476 5.33388C18.8322 4.90285 18.742 4.56566 18.5965 4.2622C18.2219 3.48106 17.5792 2.86473 16.7913 2.53075C16.485 2.40103 16.1492 2.32956 15.7198 2.23821L11.9826 1.44141C11.4052 1.3183 10.9353 1.21811 10.5563 1.15818C10.1741 1.09773 9.80477 1.06389 9.44691 1.11553Z" fill="white"/>
</g>
<defs>
<clipPath id="clip0_2670_236">
<rect width="52" height="58" fill="white"/>
</clipPath>
</defs>
</svg>
