<svg width="59" height="60" viewBox="0 0 59 60" fill="none" xmlns="http://www.w3.org/2000/svg">
<rect x="1.00293" width="58" height="58" rx="29" fill="url(#paint0_linear_2013_105)"/>
<g filter="url(#filter0_d_2013_105)">
<path fill-rule="evenodd" clip-rule="evenodd" d="M14.3627 38.3109L14.2089 41.6901C14.1239 43.559 15.5679 45.003 17.4345 44.9157L20.8138 44.762C20.9836 41.029 18.0957 38.1411 14.3627 38.3109ZM14.9777 24.7936L14.6702 31.5523C22.1243 31.2108 27.9139 37.0004 27.5747 44.4568L34.3333 44.1493C34.8452 32.9479 26.1791 24.2817 14.9777 24.7936ZM44.2633 43.6953L41.0943 43.8395C41.7735 28.9076 30.2194 17.3535 15.2852 18.0304L15.4294 14.8614C15.5216 12.8348 17.3733 11.1792 19.3801 11.3121C34.9328 12.3481 46.7789 24.1941 47.8148 39.7468C47.9477 41.7536 46.2899 43.6031 44.2633 43.6953Z" fill="white"/>
</g>
<defs>
<filter id="filter0_d_2013_105" x="13.4056" y="9.50469" width="41.2167" height="41.2147" filterUnits="userSpaceOnUse" color-interpolation-filters="sRGB">
<feFlood flood-opacity="0" result="BackgroundImageFix"/>
<feColorMatrix in="SourceAlpha" type="matrix" values="0 0 0 0 0 0 0 0 0 0 0 0 0 0 0 0 0 0 127 0" result="hardAlpha"/>
<feOffset dx="3" dy="2"/>
<feGaussianBlur stdDeviation="1.9"/>
<feComposite in2="hardAlpha" operator="out"/>
<feColorMatrix type="matrix" values="0 0 0 0 0 0 0 0 0 0 0 0 0 0 0 0 0 0 0.42 0"/>
<feBlend mode="normal" in2="BackgroundImageFix" result="effect1_dropShadow_2013_105"/>
<feBlend mode="normal" in="SourceGraphic" in2="effect1_dropShadow_2013_105" result="shape"/>
</filter>
<linearGradient id="paint0_linear_2013_105" x1="30.0029" y1="0" x2="30.0029" y2="58" gradientUnits="userSpaceOnUse">
<stop stop-color="#D7BAFF"/>
<stop offset="1" stop-color="#796BB5"/>
</linearGradient>
</defs>
</svg>
