<svg width="417" height="413" viewBox="0 0 417 413" fill="none" xmlns="http://www.w3.org/2000/svg">
<g clip-path="url(#clip0_2685_294)">
<path fill-rule="evenodd" clip-rule="evenodd" d="M5.64938 332.325L3.04268 373.644C1.60175 396.495 18.9574 414.333 41.8118 413.49L83.1876 412.017C86.0662 366.373 51.3549 330.698 5.64938 332.325ZM16.0744 167.047L10.8618 249.686C102.128 246.408 171.715 317.928 165.966 409.098L248.716 406.151C257.383 269.189 153.222 162.135 16.0744 167.047ZM370.296 401.794L331.496 403.176C343.01 220.601 204.138 77.8714 21.2887 84.352L23.7331 45.6042C25.2958 20.8246 48.3051 0.795406 72.8278 2.66311C262.876 17.2094 405.258 163.546 414.593 353.922C415.789 378.487 395.109 400.91 370.296 401.794Z" fill="white"/>
</g>
<defs>
<clipPath id="clip0_2685_294">
<rect width="417" height="413" fill="white"/>
</clipPath>
</defs>
</svg>
